<svg width="1100" height="456" viewBox="0 0 1100 456" fill="none" xmlns="http://www.w3.org/2000/svg" role="img" aria-label="Generated GitHub profile asset">
  <defs>
    <linearGradient id="bg" x1="0" y1="0" x2="1" y2="1">
      <stop offset="0%" stop-color="#020617"/>
      <stop offset="45%" stop-color="#0f172a"/>
      <stop offset="100%" stop-color="#082f49"/>
    </linearGradient>
    <linearGradient id="accent" x1="0" y1="0" x2="1" y2="0">
      <stop offset="0%" stop-color="#38bdf8"/>
      <stop offset="60%" stop-color="#22c55e"/>
      <stop offset="100%" stop-color="#f97316"/>
    </linearGradient>
    <filter id="shadow" x="-20%" y="-20%" width="140%" height="140%">
      <feDropShadow dx="0" dy="8" stdDeviation="12" flood-color="#000000" flood-opacity="0.35"/>
    </filter>
  </defs>
  <rect width="1100" height="456" rx="26" fill="url(#bg)"/>
  <circle cx="1030" cy="65" r="120" fill="#38bdf8" opacity="0.08"/>
  <circle cx="80" cy="411" r="150" fill="#22c55e" opacity="0.07"/>
  <text x="44" y="58" fill="#e2e8f0" font-family="Inter, Segoe UI, Arial" font-size="30" font-weight="800">Engineering Signal Matrix</text>
  <text x="44" y="88" fill="#94a3b8" font-family="Inter, Segoe UI, Arial" font-size="15">Config-driven skill/evidence board generated by GitHub Actions</text>
  <rect x="44" y="96" width="1012" height="42" rx="14" fill="#0f172a" opacity="0.82" filter="url(#shadow)"/>
  <text x="68" y="122" fill="#f8fafc" font-family="Inter, Segoe UI, Arial" font-size="16" font-weight="700">Backend APIs</text>
  <rect x="285" y="108" width="360" height="12" rx="6" fill="#1e293b"/>
  <rect x="285" y="108" width="331" height="12" rx="6" fill="url(#accent)"/>
  <text x="664" y="121" fill="#38bdf8" font-family="JetBrains Mono, Consolas, monospace" font-size="15" font-weight="700">92%</text>
  <text x="735" y="121" fill="#cbd5e1" font-family="Inter, Segoe UI, Arial" font-size="13">Java 21, Spring Boot 3, REST, validation, layered architecture</text>
  <rect x="44" y="150" width="1012" height="42" rx="14" fill="#0f172a" opacity="0.82" filter="url(#shadow)"/>
  <text x="68" y="176" fill="#f8fafc" font-family="Inter, Segoe UI, Arial" font-size="16" font-weight="700">Security</text>
  <rect x="285" y="162" width="360" height="12" rx="6" fill="#1e293b"/>
  <rect x="285" y="162" width="302" height="12" rx="6" fill="url(#accent)"/>
  <text x="664" y="175" fill="#38bdf8" font-family="JetBrains Mono, Consolas, monospace" font-size="15" font-weight="700">84%</text>
  <text x="735" y="175" fill="#cbd5e1" font-family="Inter, Segoe UI, Arial" font-size="13">JWT, Spring Security, RBAC, protected routes</text>
  <rect x="44" y="204" width="1012" height="42" rx="14" fill="#0f172a" opacity="0.82" filter="url(#shadow)"/>
  <text x="68" y="230" fill="#f8fafc" font-family="Inter, Segoe UI, Arial" font-size="16" font-weight="700">Data Layer</text>
  <rect x="285" y="216" width="360" height="12" rx="6" fill="#1e293b"/>
  <rect x="285" y="216" width="280" height="12" rx="6" fill="url(#accent)"/>
  <text x="664" y="229" fill="#38bdf8" font-family="JetBrains Mono, Consolas, monospace" font-size="15" font-weight="700">78%</text>
  <text x="735" y="229" fill="#cbd5e1" font-family="Inter, Segoe UI, Arial" font-size="13">MySQL, PostgreSQL, migrations, repository patterns</text>
  <rect x="44" y="258" width="1012" height="42" rx="14" fill="#0f172a" opacity="0.82" filter="url(#shadow)"/>
  <text x="68" y="284" fill="#f8fafc" font-family="Inter, Segoe UI, Arial" font-size="16" font-weight="700">DevOps Automation</text>
  <rect x="285" y="270" width="360" height="12" rx="6" fill="#1e293b"/>
  <rect x="285" y="270" width="316" height="12" rx="6" fill="url(#accent)"/>
  <text x="664" y="283" fill="#38bdf8" font-family="JetBrains Mono, Consolas, monospace" font-size="15" font-weight="700">88%</text>
  <text x="735" y="283" fill="#cbd5e1" font-family="Inter, Segoe UI, Arial" font-size="13">Docker, GitHub Actions, scheduled README generation</text>
  <rect x="44" y="312" width="1012" height="42" rx="14" fill="#0f172a" opacity="0.82" filter="url(#shadow)"/>
  <text x="68" y="338" fill="#f8fafc" font-family="Inter, Segoe UI, Arial" font-size="16" font-weight="700">Distributed Systems</text>
  <rect x="285" y="324" width="360" height="12" rx="6" fill="#1e293b"/>
  <rect x="285" y="324" width="266" height="12" rx="6" fill="url(#accent)"/>
  <text x="664" y="337" fill="#38bdf8" font-family="JetBrains Mono, Consolas, monospace" font-size="15" font-weight="700">74%</text>
  <text x="735" y="337" fill="#cbd5e1" font-family="Inter, Segoe UI, Arial" font-size="13">Messaging, microservice thinking, fault-tolerance concepts</text>
  <rect x="44" y="366" width="1012" height="42" rx="14" fill="#0f172a" opacity="0.82" filter="url(#shadow)"/>
  <text x="68" y="392" fill="#f8fafc" font-family="Inter, Segoe UI, Arial" font-size="16" font-weight="700">Documentation</text>
  <rect x="285" y="378" width="360" height="12" rx="6" fill="#1e293b"/>
  <rect x="285" y="378" width="309" height="12" rx="6" fill="url(#accent)"/>
  <text x="664" y="391" fill="#38bdf8" font-family="JetBrains Mono, Consolas, monospace" font-size="15" font-weight="700">86%</text>
  <text x="735" y="391" fill="#cbd5e1" font-family="Inter, Segoe UI, Arial" font-size="13">Architecture diagrams, release playbook, project topics</text>
</svg>
